<svg width="240" height="300" viewBox="0 0 240 300" fill="none" xmlns="http://www.w3.org/2000/svg">
  <rect width="240" height="300" rx="28" fill="#EAD9BF"/>
  <rect x="16" y="16" width="208" height="268" rx="22" fill="#F7EEDC" stroke="#C8AC7E" stroke-width="2"/>
  <path d="M120 78C145.405 78 166 98.5949 166 124C166 149.405 145.405 170 120 170C94.5949 170 74 149.405 74 124C74 98.5949 94.5949 78 120 78Z" fill="#B88858"/>
  <path d="M92 112C96.5 92 111.5 82 120 82C128.5 82 143.5 92 148 112C141.333 102.667 132 98 120 98C108 98 98.6667 102.667 92 112Z" fill="#7A4F28"/>
  <path d="M72 244C72 203.131 93.0426 178 120 178C146.957 178 168 203.131 168 244V252H72V244Z" fill="#9E2F21"/>
  <path d="M93 56C101.5 42 110.5 35 120 35C129.5 35 138.5 42 147 56L139 64C133 56 126.667 52 120 52C113.333 52 107 56 101 64L93 56Z" fill="#C8AC7E"/>
  <path d="M106 123C109.866 123 113 119.866 113 116C113 112.134 109.866 109 106 109C102.134 109 99 112.134 99 116C99 119.866 102.134 123 106 123Z" fill="#3E2818"/>
  <path d="M134 123C137.866 123 141 119.866 141 116C141 112.134 137.866 109 134 109C130.134 109 127 112.134 127 116C127 119.866 130.134 123 134 123Z" fill="#3E2818"/>
  <path d="M104 143C114.667 149.667 125.333 149.667 136 143" stroke="#6B3D1E" stroke-width="6" stroke-linecap="round"/>
</svg>
